name rise30.8019peak61.5557fall86.2505.mot
datacolumns 19
datarows 29
range 2.33166700000000 2.37833200000000
endheader
time	ground_force1_vx	ground_force1_vy	ground_force1_vz	ground_force1_px	ground_force1_py	ground_force1_pz	ground_force2_vx	ground_force2_vy	ground_force2_vz	ground_force2_px	ground_force2_py	ground_force2_pz	ground_torque1_x	ground_torque1_y	ground_torque1_z	ground_torque2_x	ground_torque2_y	ground_torque2_z	
2.33166700000000	-8.94358000000000	45.44294700000000	-12.07316100000000	0.27309600000000	0.00000000000000	0.09027400000000	-70.02620400000001	759.76922200000001	-45.40953200000000	0.02166800000000	0.00000000000000	-0.07373700000000	0.00000000000000	-6.29886200000000	0.00000000000000	0.00000000000000	-10.74870400000000	0.00000000000000	
2.33332900000000	-9.48866800000000	51.84771400000000	-13.28613100000000	0.27703000000000	0.00000000000000	0.09090400000000	-71.07202200000000	756.99641199999996	-45.13863900000000	0.02067400000000	0.00000000000000	-0.07361000000000	0.00000000000000	-7.03698600000000	0.00000000000000	0.00000000000000	-10.81788500000000	0.00000000000000	
2.33499700000000	-9.83918100000000	58.16860500000000	-14.34982400000000	0.28072600000000	0.00000000000000	0.09149600000000	-72.12653000000000	754.10017600000003	-44.85416400000000	0.01968200000000	0.00000000000000	-0.07348200000000	0.00000000000000	-7.71651400000000	0.00000000000000	0.00000000000000	-10.89074500000000	0.00000000000000	
2.33666700000000	-9.98369700000000	64.34287900000000	-15.24604000000000	0.28420700000000	0.00000000000000	0.09205600000000	-73.18790700000000	751.07764399999996	-44.55571200000000	0.01869400000000	0.00000000000000	-0.07335100000000	0.00000000000000	-8.32585900000000	0.00000000000000	0.00000000000000	-10.96703700000000	0.00000000000000	
2.33832400000000	-9.92036100000000	70.33345400000000	-15.96632900000000	0.28749400000000	0.00000000000000	0.09258500000000	-74.25424200000000	747.92594299999996	-44.24289400000000	0.01771000000000	0.00000000000000	-0.07322000000000	0.00000000000000	-8.85823000000000	0.00000000000000	0.00000000000000	-11.04650200000000	0.00000000000000	
2.33999400000000	-9.65587300000000	76.12817800000001	-16.51127000000000	0.29060300000000	0.00000000000000	0.09308900000000	-75.32354599999999	744.64220200000000	-43.91533000000000	0.01673000000000	0.00000000000000	-0.07308700000000	0.00000000000000	-9.31144900000000	0.00000000000000	0.00000000000000	-11.12886900000000	0.00000000000000	
2.34166700000000	-9.20395000000000	81.73716800000000	-16.88914800000000	0.29354900000000	0.00000000000000	0.09356900000000	-76.39374700000000	741.22356900000000	-43.57265400000000	0.01575500000000	0.00000000000000	-0.07295200000000	0.00000000000000	-9.68742300000000	0.00000000000000	0.00000000000000	-11.21385400000000	0.00000000000000	
2.34333000000000	-8.58347000000000	87.18876299999999	-17.11421200000000	0.29634400000000	0.00000000000000	0.09402800000000	-77.46269900000000	737.66721800000005	-43.21451300000000	0.01478500000000	0.00000000000000	-0.07281600000000	0.00000000000000	-9.99137200000000	0.00000000000000	0.00000000000000	-11.30115900000000	0.00000000000000	
2.34499200000000	-7.81650600000000	92.52468300000000	-17.20475700000000	0.29899800000000	0.00000000000000	0.09446700000000	-78.52818300000000	733.97036000000003	-42.84056900000000	0.01382000000000	0.00000000000000	-0.07267800000000	0.00000000000000	-10.23090800000000	0.00000000000000	0.00000000000000	-11.39047800000000	0.00000000000000	
2.34665800000000	-6.92643400000000	97.79491400000001	-17.18119700000000	0.30152000000000	0.00000000000000	0.09488900000000	-79.58791400000000	730.13025600000003	-42.45050700000000	0.01286200000000	0.00000000000000	-0.07253900000000	0.00000000000000	-10.41508500000000	0.00000000000000	0.00000000000000	-11.48149200000000	0.00000000000000	
2.34832800000000	-5.93626200000000	103.05280300000000	-17.06430600000000	0.30391800000000	0.00000000000000	0.09529400000000	-80.63954200000001	726.14422700000000	-42.04403300000000	0.01191000000000	0.00000000000000	-0.07239900000000	0.00000000000000	-10.55348100000000	0.00000000000000	0.00000000000000	-11.57387300000000	0.00000000000000	
2.34999800000000	-4.86725600000000	108.35069400000000	-16.87372700000000	0.30619800000000	0.00000000000000	0.09568500000000	-81.68066100000000	722.00967000000003	-41.62087700000000	0.01096500000000	0.00000000000000	-0.07225600000000	0.00000000000000	-10.65540600000000	0.00000000000000	0.00000000000000	-11.66728200000000	0.00000000000000	
2.35165900000000	-3.73794100000000	113.73637600000001	-16.62681800000000	0.30836700000000	0.00000000000000	0.09606200000000	-82.70881199999999	717.72406500000000	-41.18079900000000	0.01002700000000	0.00000000000000	-0.07211300000000	0.00000000000000	-10.72925700000000	0.00000000000000	0.00000000000000	-11.76137400000000	0.00000000000000	
2.35332800000000	-2.56347500000000	119.25046300000000	-16.33788200000000	0.31043000000000	0.00000000000000	0.09642600000000	-83.72148799999999	713.28499099999999	-40.72358800000000	0.00909700000000	0.00000000000000	-0.07196800000000	0.00000000000000	-10.78205800000000	0.00000000000000	0.00000000000000	-11.85579400000000	0.00000000000000	
2.35499700000000	-1.35537900000000	124.92474199999999	-16.01775000000000	0.31239100000000	0.00000000000000	0.09677900000000	-84.71614400000000	708.69013900000004	-40.24906600000000	0.00817400000000	0.00000000000000	-0.07182100000000	0.00000000000000	-10.81918900000000	0.00000000000000	0.00000000000000	-11.95017900000000	0.00000000000000	
2.35665700000000	-0.12159100000000	130.78144399999999	-15.67370100000000	0.31425500000000	0.00000000000000	0.09712000000000	-85.69019800000000	703.93732599999998	-39.75709100000000	0.00725900000000	0.00000000000000	-0.07167300000000	0.00000000000000	-10.84427900000000	0.00000000000000	0.00000000000000	-12.04416400000000	0.00000000000000	
2.35833100000000	1.13323300000000	136.83332500000000	-15.30966300000000	0.31602400000000	0.00000000000000	0.09745000000000	-86.64104200000000	699.02450799999997	-39.24755900000000	0.00635100000000	0.00000000000000	-0.07152400000000	0.00000000000000	-10.85926300000000	0.00000000000000	0.00000000000000	-12.13737400000000	0.00000000000000	
2.35999700000000	2.40723200000000	143.08439899999999	-14.92662400000000	0.31770100000000	0.00000000000000	0.09777100000000	-87.56604600000000	693.94979499999999	-38.72040500000000	0.00545200000000	0.00000000000000	-0.07137300000000	0.00000000000000	-10.86455300000000	0.00000000000000	0.00000000000000	-12.22943200000000	0.00000000000000	
2.36165800000000	3.70073600000000	149.53115199999999	-14.52318100000000	0.31929000000000	0.00000000000000	0.09808200000000	-88.46256600000000	688.71146599999997	-38.17560700000000	0.00456100000000	0.00000000000000	-0.07122100000000	0.00000000000000	-10.85928900000000	0.00000000000000	0.00000000000000	-12.31995700000000	0.00000000000000	
2.36332800000000	5.01561600000000	156.16405300000000	-14.09617400000000	0.32079300000000	0.00000000000000	0.09838400000000	-89.32795200000000	683.30798300000004	-37.61318500000000	0.00367900000000	0.00000000000000	-0.07106700000000	0.00000000000000	-10.84165800000000	0.00000000000000	0.00000000000000	-12.40856600000000	0.00000000000000	
2.36499700000000	6.35463900000000	162.96920100000000	-13.64132400000000	0.32221200000000	0.00000000000000	0.09867800000000	-90.15955700000001	677.73801000000003	-37.03320600000000	0.00280500000000	0.00000000000000	-0.07091200000000	0.00000000000000	-10.80921200000000	0.00000000000000	0.00000000000000	-12.49487300000000	0.00000000000000	
2.36665900000000	7.72088300000000	169.92995500000001	-13.15384900000000	0.32354900000000	0.00000000000000	0.09896300000000	-90.95474000000000	672.00042399999995	-36.43578500000000	0.00193900000000	0.00000000000000	-0.07075600000000	0.00000000000000	-10.75918900000000	0.00000000000000	0.00000000000000	-12.57849200000000	0.00000000000000	
2.36833200000000	9.11723800000000	177.02842899999999	-12.62899000000000	0.32480500000000	0.00000000000000	0.09924000000000	-91.71087799999999	666.09433200000001	-35.82108100000000	0.00108200000000	0.00000000000000	-0.07059900000000	0.00000000000000	-10.68879800000000	0.00000000000000	0.00000000000000	-12.65904000000000	0.00000000000000	
2.36999900000000	10.54601900000000	184.24677700000001	-12.06245400000000	0.32598200000000	0.00000000000000	0.09951000000000	-92.42537200000000	660.01908400000002	-35.18930700000000	0.00023300000000	0.00000000000000	-0.07044100000000	0.00000000000000	-10.59546000000000	0.00000000000000	0.00000000000000	-12.73613200000000	0.00000000000000	
2.37166300000000	12.00868600000000	191.56820500000001	-11.45073000000000	0.32708200000000	0.00000000000000	0.09977200000000	-93.09565499999999	653.77428799999996	-34.54072300000000	-0.00060700000000	0.00000000000000	-0.07028100000000	0.00000000000000	-10.47698600000000	0.00000000000000	0.00000000000000	-12.80938900000000	0.00000000000000	
2.37332400000000	13.50569400000000	198.97769700000001	-10.79130300000000	0.32810600000000	0.00000000000000	0.10002700000000	-93.71920100000000	647.35982300000001	-33.87564100000000	-0.00144000000000	0.00000000000000	-0.07012100000000	0.00000000000000	-10.33170600000000	0.00000000000000	0.00000000000000	-12.87843200000000	0.00000000000000	
2.37499200000000	15.03643000000000	206.46244999999999	-10.08275300000000	0.32905500000000	0.00000000000000	0.10027500000000	-94.29353000000000	640.77584600000000	-33.19442500000000	-0.00226500000000	0.00000000000000	-0.06995900000000	0.00000000000000	-10.15853400000000	0.00000000000000	0.00000000000000	-12.94289100000000	0.00000000000000	
2.37666500000000	16.59925600000000	214.01204999999999	-9.32476400000000	0.32993000000000	0.00000000000000	0.10051600000000	-94.81622000000000	634.02280099999996	-32.49749000000000	-0.00308100000000	0.00000000000000	-0.06979600000000	0.00000000000000	-9.95698000000000	0.00000000000000	0.00000000000000	-13.00239900000000	0.00000000000000	
2.37833200000000	18.19160400000000	221.61843400000001	-8.51805100000000	0.33073200000000	0.00000000000000	0.10075100000000	-95.28491200000001	627.10143000000005	-31.78530600000000	-0.00389100000000	0.00000000000000	-0.06963300000000	0.00000000000000	-9.72712900000000	0.00000000000000	0.00000000000000	-13.05659700000000	0.00000000000000	
